<svg xmlns="http://www.w3.org/2000/svg" viewBox="0 0 128 128"><path fill="#fff" d="M64 12A52 52 0 0012 64c0 22.9 14.8 42.3 35.3 49.1 2.6.5 3.5-1.1 3.5-2.5v-9c-14.3 3.1-17.3-6.2-17.3-6.2-2.4-6.1-5.9-7.8-5.9-7.8-4.9-3.4.4-3.3.4-3.3 5.4.4 8.2 5.6 8.2 5.6 4.8 8.2 12.6 5.9 15.7 4.5.5-3.5 1.9-5.9 3.4-7.3-11.4-1.3-23.4-5.7-23.4-25.2 0-5.6 2-10.2 5.4-13.8-.5-1.3-2.3-6.5.5-13.5 0 0 4.3-1.4 14.1 5.3a49 49 0 0125.6 0c9.8-6.7 14.1-5.3 14.1-5.3 2.8 7 1 12.2.5 13.5 3.4 3.7 5.4 8.3 5.4 13.8 0 19.6-12 23.9-23.5 25.2 2 1.7 3.7 5 3.7 10.1v14.9c0 1.4.9 3 3.5 2.5C101.2 106.3 116 86.9 116 64A52 52 0 0064 12z"/></svg>
