<svg xmlns="http://www.w3.org/2000/svg" viewBox="0 0 128 128"><path fill="#F7DF1E" d="M2 2h124v124H2z"/><path d="M86.7 106.3c2.5 4.1 5.7 7.1 11.4 7.1 4.8 0 7.9-2.4 7.9-5.7 0-4-3.2-5.4-8.6-7.7l-3-1.3c-8.6-3.7-14.3-8.3-14.3-18.1 0-9 6.9-15.9 17.8-15.9 7.7 0 13.3 2.7 17.3 9.9l-9.5 6.1c-2.1-3.7-4.4-5.2-7.8-5.2-3.5 0-5.7 2.2-5.7 5.2 0 3.6 2.2 5.1 7.2 7.3l3 1.3c10.2 4.4 15.9 8.9 15.9 19 0 10.9-8.6 16.9-20.2 16.9-11.3 0-18.6-5.4-22.2-12.5zm-44 .6c1.9 3.4 3.6 6.3 7.8 6.3 4 0 6.5-1.6 6.5-7.8V58.6h12.1v47.9c0 12.5-7.3 18.2-18 18.2-9.6 0-15.2-5-18-11l9.6-6z"/></svg>
