<svg xmlns="http://www.w3.org/2000/svg" viewBox="0 0 128 128"><linearGradient id="a" x1="0" x2="0" y1="0" y2="1"><stop offset="0" stop-color="#387eb8"/><stop offset="1" stop-color="#366994"/></linearGradient><linearGradient id="b" x1="0" x2="0" y1="0" y2="1"><stop offset="0" stop-color="#ffe052"/><stop offset="1" stop-color="#ffc331"/></linearGradient><path fill="url(#a)" d="M63.8 16C40 16 42 28 42 28v12h22v6H32s-16-2-16 22 14 24 14 24h10V78s-.6-14 12-14h22s12 0 12-12V28S87.7 16 63.8 16zM52 26a6 6 0 110 12 6 6 0 010-12z"/><path fill="url(#b)" d="M64.2 112C88 112 86 100 86 100V88H64V82h32s16 2 16-22-14-24-14-24H88v14s.6 14-12 14H54s-12 0-12 12v26s1.1 10 22.2 10zM76 102a6 6 0 110-12 6 6 0 010 12z"/></svg>
