<svg xmlns="http://www.w3.org/2000/svg" viewBox="0 0 128 128"><g fill="#61DAFB"><circle cx="64" cy="64" r="8"/><path d="M64 38c-14.6 0-28 2.1-38.2 5.8C15.7 47.6 10 55 10 64s5.7 16.4 15.8 20.2C36 88 49.4 90 64 90s28-2.1 38.2-5.8C112.3 80.4 118 73 118 64s-5.7-16.4-15.8-20.2C92 40.1 78.6 38 64 38zm0 8c12.9 0 25.2 1.9 33.8 5 7.3 2.7 11.2 7.6 11.2 13 0 5.4-3.9 10.3-11.2 13-8.6 3.1-20.9 5-33.8 5s-25.2-1.9-33.8-5c-7.3-2.7-11.2-7.6-11.2-13 0-5.4 3.9-10.3 11.2-13 8.6-3.1 20.9-5 33.8-5z"/><path d="M45.1 48.7c-7.3-10.9-15.8-19.6-23.3-24.6C14.8 20.6 9.2 20 6 22c-3.2 1.9-4.6 6.2-3.7 12.4 1 7.1 4.8 15.8 10.7 24.7 7.3 10.9 15.8 19.6 23.3 24.6 7 4.6 12.7 5.2 15.9 3.3 3.2-1.9 4.6-6.2 3.7-12.4-1-7.1-4.8-15.8-10.7-24.7zM39 53c5.9 8.8 9.4 17 10.2 22.7.5 3.4-.2 4.6-.3 4.6-.2.1-1.5-.1-4.2-1.9-5.4-3.6-12.7-10.9-19.1-20.6C20.7 48 17.3 39.8 16.6 34.1c-.5-3.4.2-4.6.3-4.6.2-.1 1.5.1 4.2 1.9C26.6 35 33.9 42.3 39 53z"/><path d="M82.9 48.7c7.3-10.9 15.8-19.6 23.3-24.6 7-4.6 12.7-5.2 15.9-3.3 3.2 1.9 4.6 6.2 3.7 12.4-1 7.1-4.8 15.8-10.7 24.7-7.3 10.9-15.8 19.6-23.3 24.6-7 4.6-12.7 5.2-15.9 3.3-3.2-1.9-4.6-6.2-3.7-12.4 1-7.1 4.8-15.8 10.7-24.7zM89 53c-5.9 8.8-9.4 17-10.2 22.7-.5 3.4.2 4.6.3 4.6.2.1 1.5-.1 4.2-1.9 5.4-3.6 12.7-10.9 19.1-20.6 5-7.7 8.4-16 9.1-21.6.5-3.4-.2-4.6-.3-4.6-.2-.1-1.5.1-4.2 1.9C101.4 35 94.1 42.3 89 53z"/></g></svg>
